<svg width="24" height="24" viewBox="0 0 24 24" fill="none" xmlns="http://www.w3.org/2000/svg">
<g clip-path="url(#clip0_3_54)">
<path d="M12 24C8.94368 23.998 6.0033 22.8298 3.77884 20.7338C1.55438 18.6379 0.213492 15.7722 0.0297726 12.7213C-0.153947 9.67053 0.833349 6.66458 2.79021 4.31684C4.74707 1.9691 7.52602 0.456508 10.56 0.0876966C12.4053 -0.140873 14.2785 0.0662023 16.0292 0.692312C16.1435 0.733224 16.2486 0.796238 16.3385 0.877757C16.4284 0.959276 16.5013 1.0577 16.5532 1.16742C16.605 1.27714 16.6348 1.39599 16.6407 1.5172C16.6466 1.63841 16.6286 1.7596 16.5877 1.87385C16.5468 1.9881 16.4838 2.09317 16.4023 2.18307C16.3207 2.27297 16.2223 2.34593 16.1126 2.39779C16.0029 2.44964 15.884 2.47938 15.7628 2.48531C15.6416 2.49123 15.5204 2.47322 15.4062 2.43231C13.1382 1.62535 10.6572 1.65043 8.40602 2.50307C6.1548 3.35571 4.27974 4.98044 3.11537 7.08739C1.951 9.19434 1.57308 11.6464 2.04903 14.0062C2.52497 16.366 3.82383 18.4799 5.71386 19.9708C7.2956 21.211 9.20985 21.9539 11.2141 22.1053C13.2184 22.2568 15.2226 21.8099 16.9727 20.8214C18.7228 19.8329 20.1402 18.3473 21.0453 16.5526C21.9504 14.7579 22.3025 12.7349 22.0569 10.74C22.0424 10.6188 22.0519 10.4959 22.0848 10.3783C22.1178 10.2608 22.1735 10.1508 22.249 10.0548C22.3244 9.95885 22.418 9.87864 22.5244 9.81881C22.6309 9.75898 22.748 9.72071 22.8692 9.70616C22.9905 9.69161 23.1134 9.70108 23.2309 9.73403C23.3485 9.76698 23.4584 9.82277 23.5544 9.8982C23.6504 9.97363 23.7306 10.0672 23.7904 10.1737C23.8503 10.2801 23.8885 10.3972 23.9031 10.5185C24.113 12.206 23.9619 13.9188 23.4598 15.5435C22.9576 17.1682 22.1159 18.6676 20.9904 19.9423C19.8649 21.2171 18.4814 22.238 16.9314 22.9376C15.3815 23.6371 13.7005 23.9993 12 24Z" fill="white"/>
<path d="M12 20.2431C11.7552 20.2431 11.5204 20.1458 11.3473 19.9727C11.1742 19.7996 11.077 19.5648 11.077 19.32V10.4585C11.077 10.2136 11.1742 9.97886 11.3473 9.80575C11.5204 9.63264 11.7552 9.53539 12 9.53539C12.2449 9.53539 12.4796 9.63264 12.6528 9.80575C12.8259 9.97886 12.9231 10.2136 12.9231 10.4585V19.32C12.9231 19.5648 12.8259 19.7996 12.6528 19.9727C12.4796 20.1458 12.2449 20.2431 12 20.2431Z" fill="white"/>
<path d="M12 8.43693C12.6551 8.43693 13.1862 7.90587 13.1862 7.25077C13.1862 6.59568 12.6551 6.06462 12 6.06462C11.3449 6.06462 10.8138 6.59568 10.8138 7.25077C10.8138 7.90587 11.3449 8.43693 12 8.43693Z" fill="white"/>
</g>
<defs>
<clipPath id="clip0_3_54">
<rect width="24" height="24" fill="white"/>
</clipPath>
</defs>
</svg>
